<?xml version="1.0" encoding="utf-8"?>
<!-- Generator: Adobe Illustrator 15.1.0, SVG Export Plug-In . SVG Version: 6.00 Build 0)  -->
<!DOCTYPE svg PUBLIC "-//W3C//DTD SVG 1.1//EN" "http://www.w3.org/Graphics/SVG/1.1/DTD/svg11.dtd">
<svg version="1.1" id="Layer_1" xmlns="http://www.w3.org/2000/svg" xmlns:xlink="http://www.w3.org/1999/xlink" x="0px" y="0px"
	 width="198px" height="198px" viewBox="0 0 198 198" enable-background="new 0 0 198 198" xml:space="preserve">
<g>
	<defs>
		<path id="SVGID_1_" d="M196,182.813c0,6.436-1.482,14.187-7.125,14.187H16.042C10.397,197,3,189.249,3,182.813V12.901
			C3,6.467,10.397,4,16.042,4h172.833C194.518,4,196,6.467,196,12.901V182.813z"/>
	</defs>
	<clipPath id="SVGID_2_">
		<use xlink:href="#SVGID_1_"  overflow="visible"/>
	</clipPath>
	<rect x="-112.882" y="-596.708" clip-path="url(#SVGID_2_)" fill="#FFFFFF" width="440.222" height="812.447"/>
	<path clip-path="url(#SVGID_2_)" fill="#EBA920" d="M125.934-422.229c7.354,26.396,28.696,19.449,43.492,37.661
		c40.789,50.198,35.985,177.437,34.711,226.413c0,37.055-26.303,39.788-26.303,39.788c-1.365-2.394,1.02-4.801,1.02-4.801
		s4.45-2.227,7.313-4.771c1.84-1.636,4.988-8.13,5.725-13.675c-2.862-3.976-5.913-11.97-6.879-11.97
		c-1.709,0-4.707,5.281-6.21,10.539c-2.812,9.859-6.155,6.839-6.155,6.839c-0.878-3.155,2.447-19.089,4.158-24.898
		c1.555-5.28,8.71-12.804,12.066-18.497c0.062-1.026,0.12-2.06,0.218-3.071c2.575-27.325-29.906-150.669-29.906-150.669
		s-14.585,6.313,0.667,81.06c10.825,53.05,8.597,135.151-11.537,225.189c-2.85,12.752-1.12,37.472-6.149,63.195
		c-10.011,51.158-12.812,58.711-10.299,64.298c12.228,27.154,22.443,24.886,25.636,37.658c2.335,9.345-20.402,13.363-34.065,4.258
		c-8.385-5.593-8.805-17.969-10.926-23.721c-2.783-7.553,2.297-13.736,2.25-29.361c-0.061-19.731-3.917-25.688-3.917-64.316
		c0-12.299,2.649-47.912,2.237-53.69c-5.593-78.292,3.912-127.71-3.48-127.71c-17.64,0-41.451-211.13-41.451-209.87
		C68.148-365.095,125.934-422.229,125.934-422.229"/>
	<path clip-path="url(#SVGID_2_)" fill="#EBA920" d="M91.008-422.229c-7.355,26.396-28.691,19.449-43.491,37.661
		C6.728-334.37,11.535-207.131,12.809-158.155c0,37.055,26.299,39.788,26.299,39.788c1.368-2.394-1.02-4.801-1.02-4.801
		s-4.45-2.227-7.312-4.771c-1.841-1.636-4.989-8.13-5.726-13.675c2.863-3.976,5.914-11.97,6.879-11.97
		c1.709,0,4.707,5.281,6.206,10.539c2.816,9.859,6.156,6.839,6.156,6.839c0.878-3.155-2.449-19.089-4.158-24.898
		c-1.557-5.28-8.71-12.804-12.063-18.497c-0.066-1.026-0.12-2.06-0.214-3.071c-2.582-27.325,29.899-150.669,29.899-150.669
		s14.592,6.313-0.664,81.06c-10.827,53.05-8.597,135.151,11.534,225.189c2.856,12.752,1.127,37.472,6.156,63.195
		c10.004,51.158,12.81,58.711,10.299,64.298c-12.23,27.154-22.443,24.886-25.636,37.658c-2.34,9.345,20.398,13.363,34.057,4.258
		c8.39-5.593,8.809-17.969,10.931-23.721c2.783-7.553-2.297-13.736-2.249-29.361c0.057-19.731,3.919-25.688,3.919-64.316
		c0-12.299-2.651-47.912-2.239-53.69c5.593-78.292-3.916-127.71,3.479-127.71c17.636,0,41.451-211.13,41.451-209.87
		C148.794-365.095,91.008-422.229,91.008-422.229"/>
	<path clip-path="url(#SVGID_2_)" fill="#26A3DD" d="M164.902-208.126c0,0,12.218,83.07-28.504,278.515h-26.87v-219.883h-2.447
		v-59.451L164.902-208.126z"/>
	<path clip-path="url(#SVGID_2_)" fill="#26A3DD" d="M49.574-208.126c0,0-12.217,83.07,28.506,278.515h26.869v-219.883h2.447
		v-59.451L49.574-208.126z"/>
	<rect x="-112.882" y="-596.708" clip-path="url(#SVGID_2_)" fill="#FFFFFF" width="440.222" height="812.447"/>
	<path clip-path="url(#SVGID_2_)" fill="#D98A20" d="M90.78,18.76c0.899,24.081,3.567,31.034,3.618,47.441
		c0.047,15.622-5.033,21.81-2.25,29.359c2.121,5.755,2.542,18.128,10.931,23.721c13.658,9.107,36.396,5.086,34.056-4.259
		c-3.191-12.77-13.403-10.507-25.635-37.655c-2.412-5.372,0.088-12.584,9.18-58.607H90.78z"/>
	<path clip-path="url(#SVGID_2_)" fill="#EBA920" d="M91.008-422.229c-7.355,26.396-28.691,19.449-43.491,37.661
		C6.728-334.37,11.535-207.131,12.809-158.155c0,37.055,26.299,39.788,26.299,39.788c1.368-2.394-1.02-4.801-1.02-4.801
		s-4.45-2.227-7.312-4.771c-1.841-1.636-4.989-8.13-5.726-13.675c2.863-3.976,5.914-11.97,6.879-11.97
		c1.709,0,4.707,5.281,6.206,10.539c2.816,9.859,6.156,6.839,6.156,6.839c0.878-3.155-2.449-19.089-4.158-24.898
		c-1.557-5.28-8.71-12.804-12.063-18.497c-0.066-1.026-0.12-2.06-0.214-3.071c-2.582-27.325,29.899-150.669,29.899-150.669
		s14.592,6.313-0.664,81.06c-10.827,53.05,0.792,145.379,20.921,235.416c2.854,12.75,7.779,55.621,12.809,81.351
		c10.01,51.158,12.812,58.711,10.299,64.297c-12.227,27.152-22.443,24.886-25.636,37.655c-2.339,9.345,20.398,13.363,34.057,4.259
		c8.393-5.593,6.526-14.292,8.647-20.047c2.787-7.55-0.01-17.41,0.034-33.032c0.063-19.729-4.583-45.829-4.583-84.457
		c0-12.299-2.683-47.282-2.273-53.057c5.592-78.297-11.419-136.585-4.023-136.585c17.636,0,41.451-211.13,41.451-209.87
		C148.794-365.095,91.008-422.229,91.008-422.229"/>
	<path clip-path="url(#SVGID_2_)" fill="#EBA920" d="M125.934-422.229c7.354,26.396,28.696,19.449,43.492,37.661
		c40.789,50.198,35.985,177.437,34.711,226.413c0,37.055-26.303,39.788-26.303,39.788c-1.365-2.394,1.02-4.801,1.02-4.801
		s4.45-2.227,7.313-4.771c1.84-1.636,4.988-8.13,5.725-13.675c-2.862-3.976-5.913-11.97-6.879-11.97
		c-1.709,0-4.707,5.281-6.21,10.539c-2.812,9.859-6.155,6.839-6.155,6.839c-0.878-3.155,2.447-19.089,4.158-24.898
		c1.555-5.28,8.71-12.804,12.066-18.497c0.062-1.026,0.12-2.06,0.218-3.071c2.575-27.325-29.906-150.669-29.906-150.669
		s-14.585,6.313,0.667,81.06c10.825,53.05-11.765,112.119-31.898,202.155c-2.854,12.751-1.116,37.472-6.152,63.197
		C111.793,64.229,90.482,40.514,90.482,1.885c0-12.3,2.651-47.914,2.239-53.686c-5.593-78.296,24.271-104.682,16.878-104.682
		c-17.64,0-41.451-211.13-41.451-209.87C68.148-365.095,125.934-422.229,125.934-422.229"/>
	<g clip-path="url(#SVGID_2_)">
		<defs>
			<path id="SVGID_3_" d="M107.081-149.492h2.447L89.164,47.356h31.299c40.719-195.449,44.439-255.483,44.439-255.483l-57.821-0.819
				V-149.492z"/>
		</defs>
		<clipPath id="SVGID_4_">
			<use xlink:href="#SVGID_3_"  overflow="visible"/>
		</clipPath>
		
			<linearGradient id="SVGID_5_" gradientUnits="userSpaceOnUse" x1="-1264.4868" y1="692.2188" x2="-1261.0537" y2="692.2188" gradientTransform="matrix(-3.300000e-06 -74.6533 -74.6533 3.300000e-06 51803.3828 -94350.8438)">
			<stop  offset="0" style="stop-color:#0083B9"/>
			<stop  offset="0.1603" style="stop-color:#0083B9"/>
			<stop  offset="0.3473" style="stop-color:#0486BD"/>
			<stop  offset="0.5346" style="stop-color:#1090C7"/>
			<stop  offset="0.7215" style="stop-color:#24A0D9"/>
			<stop  offset="0.7591" style="stop-color:#29A4DD"/>
			<stop  offset="1" style="stop-color:#29A4DD"/>
		</linearGradient>
		<rect x="89.164" y="-208.945" clip-path="url(#SVGID_4_)" fill="url(#SVGID_5_)" width="75.738" height="256.302"/>
	</g>
	<path clip-path="url(#SVGID_2_)" fill="#26A3DD" d="M49.574-208.126c0,0,3.827,111.452,44.547,306.897h26.875l-11.902-248.265
		h-1.697v-59.451L49.574-208.126z"/>
</g>
<path fill="none" stroke="#EBA920" stroke-width="5" stroke-miterlimit="10" d="M195.5,182.373c0,6.436-2.644,13.127-8.287,13.127
	H14.38c-5.645,0-11.88-6.691-11.88-13.127V12.461C2.5,6.026,8.735,2.5,14.38,2.5h172.833c5.644,0,8.287,3.526,8.287,9.961V182.373z"
	/>
</svg>
