<?xml version="1.0" encoding="utf-8"?>
<!-- Generator: Adobe Illustrator 15.1.0, SVG Export Plug-In . SVG Version: 6.00 Build 0)  -->
<!DOCTYPE svg PUBLIC "-//W3C//DTD SVG 1.1//EN" "http://www.w3.org/Graphics/SVG/1.1/DTD/svg11.dtd">
<svg version="1.1" id="Layer_1" xmlns="http://www.w3.org/2000/svg" xmlns:xlink="http://www.w3.org/1999/xlink" x="0px" y="0px"
	 width="128.225px" height="236.644px" viewBox="0 0 128.225 236.644" enable-background="new 0 0 128.225 236.644"
	 xml:space="preserve">
<rect fill="#FFFFFF" width="128.225" height="236.644"/>
<path fill="#EBA920" d="M53.3,32.683c0,8.168,4.842,17.527,10.813,17.527s10.812-9.359,10.812-17.527
	c0-8.17-4.84-12.053-10.812-12.053S53.3,24.513,53.3,32.683"/>
<path fill="#EBA920" d="M70.339,46.344c-1.008,1.009-1.285,9.29,3.504,10.804c2.969,0.938-10.713,4.789-10.713,4.789l0.631-16.889
	L70.339,46.344z"/>
<path fill="#EBA920" d="M58.217,46.344c1.008,1.009,1.286,9.29-3.504,10.804c-2.968,0.938,10.713,4.789,10.713,4.789l-0.63-16.889
	L58.217,46.344z"/>
<path fill="#EBA920" d="M72.243,37.941c-0.162,0.975,0.44,1.904,1.345,2.078c0.903,0.174,1.767-0.474,1.929-1.449l0.456-2.762
	c0.161-0.975-0.442-1.903-1.345-2.078c-0.904-0.174-1.768,0.476-1.928,1.449L72.243,37.941z"/>
<path fill="#EBA920" d="M56.208,37.941c0.16,0.975-0.442,1.904-1.346,2.078c-0.904,0.174-1.768-0.474-1.929-1.449l-0.456-2.762
	c-0.162-0.975,0.441-1.903,1.345-2.078c0.903-0.174,1.767,0.476,1.929,1.449L56.208,37.941z"/>
<path fill="#EBA920" d="M88.031,131.955c0,0-1.065,3.104-1.112,3.335c-0.046,0.231-1.111,1.204-1.806,1.528
	s-0.974,0.834-0.974,1.158s1.808-0.186,1.808-0.186s4.028-1.715,3.751-4.91S88.031,131.955,88.031,131.955"/>
<path fill="#EBA920" d="M87.323,130.148c0,0-0.569,3.231-0.578,3.468c-0.01,0.235-0.912,1.362-1.547,1.791
	c-0.636,0.429-0.832,0.975-0.781,1.295c0.052,0.32,1.756-0.464,1.756-0.464s3.714-2.32,2.943-5.435
	C88.344,127.69,87.323,130.148,87.323,130.148"/>
<path fill="#EBA920" d="M87.354,128.712c0,0-0.492,2.792-0.5,2.997c-0.009,0.203-0.787,1.177-1.336,1.547
	c-0.551,0.37-0.72,0.843-0.676,1.119c0.044,0.277,1.518-0.4,1.518-0.4s3.209-2.006,2.541-4.696
	C88.235,126.588,87.354,128.712,87.354,128.712"/>
<path fill="#EBA920" d="M69.561,50.821c2.142,7.688,8.358,5.665,12.668,10.97c11.881,14.621,10.481,51.683,10.11,65.948
	c0,10.793-7.661,11.589-7.661,11.589c-0.397-0.697,0.297-1.398,0.297-1.398s1.296-0.648,2.13-1.39
	c0.536-0.477,1.453-2.368,1.668-3.983c-0.834-1.158-1.723-3.486-2.004-3.486c-0.498,0-1.371,1.538-1.809,3.069
	c-0.819,2.872-1.793,1.992-1.793,1.992c-0.256-0.919,0.713-5.56,1.211-7.252c0.453-1.538,2.537-3.729,3.515-5.388
	c0.019-0.299,0.035-0.6,0.063-0.895c0.75-7.959-8.711-43.886-8.711-43.886s-4.248,1.839,0.194,23.61
	c3.153,15.452,2.504,39.366-3.36,65.592c-0.83,3.714-0.326,10.914-1.791,18.407c-2.916,14.9-3.732,17.101-3,18.728
	c3.562,7.909,6.537,7.249,7.467,10.969c0.681,2.722-5.942,3.893-9.922,1.24c-2.442-1.629-2.564-5.233-3.183-6.909
	c-0.811-2.199,0.669-4.001,0.655-8.552c-0.018-5.747-1.141-7.482-1.141-18.733c0-3.583,0.771-13.956,0.651-15.639
	c-1.629-22.805,1.14-37.199-1.014-37.199c-5.138,0-12.073-61.496-12.073-61.129C52.729,67.463,69.561,50.821,69.561,50.821"/>
<path fill="#EBA920" d="M89.097,133.622c0,0-1.854-1.76-1.898-2.177c-0.047-0.417-0.047-3.427-0.047-3.427l2.362,1.574l-0.231,4.076
	"/>
<path fill="#EBA920" d="M40.917,131.955c0,0,1.066,3.104,1.111,3.335c0.047,0.231,1.111,1.204,1.807,1.528s0.973,0.834,0.973,1.158
	s-1.807-0.186-1.807-0.186s-4.029-1.715-3.751-4.91C39.526,129.686,40.917,131.955,40.917,131.955"/>
<path fill="#EBA920" d="M41.624,130.148c0,0,0.57,3.231,0.58,3.468c0.008,0.235,0.91,1.362,1.545,1.791
	c0.637,0.429,0.832,0.975,0.781,1.295s-1.755-0.464-1.755-0.464s-3.714-2.32-2.942-5.435
	C40.604,127.69,41.624,130.148,41.624,130.148"/>
<path fill="#EBA920" d="M41.595,128.712c0,0,0.491,2.792,0.5,2.997c0.008,0.203,0.787,1.177,1.336,1.547s0.719,0.843,0.674,1.119
	c-0.043,0.277-1.517-0.4-1.517-0.4s-3.209-2.006-2.542-4.696S41.595,128.712,41.595,128.712"/>
<path fill="#EBA920" d="M59.388,50.821c-2.143,7.688-8.357,5.665-12.668,10.97c-11.881,14.621-10.48,51.683-10.109,65.948
	c0,10.793,7.66,11.589,7.66,11.589c0.398-0.697-0.297-1.398-0.297-1.398s-1.296-0.648-2.13-1.39
	c-0.536-0.477-1.453-2.368-1.668-3.983c0.834-1.158,1.723-3.486,2.004-3.486c0.498,0,1.371,1.538,1.808,3.069
	c0.82,2.872,1.793,1.992,1.793,1.992c0.256-0.919-0.713-5.56-1.211-7.252c-0.453-1.538-2.537-3.729-3.514-5.388
	c-0.02-0.299-0.035-0.6-0.062-0.895c-0.752-7.959,8.709-43.886,8.709-43.886s4.25,1.839-0.193,23.61
	c-3.153,15.452-2.504,39.366,3.359,65.592c0.832,3.714,0.328,10.914,1.793,18.407c2.914,14.9,3.731,17.101,3,18.728
	c-3.562,7.909-6.537,7.249-7.467,10.969c-0.682,2.722,5.941,3.893,9.92,1.24c2.443-1.629,2.565-5.233,3.184-6.909
	c0.811-2.199-0.669-4.001-0.655-8.552c0.017-5.747,1.142-7.482,1.142-18.733c0-3.583-0.772-13.956-0.652-15.639
	c1.629-22.805-1.141-37.199,1.014-37.199c5.137,0,12.073-61.496,12.073-61.129C76.219,67.463,59.388,50.821,59.388,50.821"/>
<path fill="#EBA920" d="M39.852,133.622c0,0,1.853-1.76,1.899-2.177c0.045-0.417,0.045-3.427,0.045-3.427l-2.361,1.574l0.23,4.076"
	/>
<path fill="#26A3DD" d="M45.423,61.236c1.897-1.896,10.674-5.931,10.674-5.931c2.865,2.69,5.664,3.472,8.064,3.386v56.39H46.134
	l3.084-33.445c-5.219,11.623-7.116,36.055-7.116,36.055l-7.353-1.423C33.089,85.194,43.524,63.134,45.423,61.236"/>
<path fill="#26A3DD" d="M82.808,61.236c-1.897-1.896-10.674-5.931-10.674-5.931c-2.865,2.69-5.664,3.472-8.064,3.386v56.39h18.027
	l-3.084-33.445c5.219,11.623,7.116,36.055,7.116,36.055l7.353-1.423C95.142,85.194,84.706,63.134,82.808,61.236"/>
<path fill="#26A3DD" d="M80.911,113.184c0,0,3.559,24.196-8.303,81.124h-7.826v-64.046h-0.713v-17.316L80.911,113.184z"/>
<path fill="#26A3DD" d="M47.319,113.184c0,0-3.559,24.196,8.303,81.124h7.826v-64.046h0.713v-17.316L47.319,113.184z"/>
<rect fill="#FFFFFF" width="128.225" height="236.644"/>
<path fill="#D98A20" d="M59.321,179.27c0.262,7.015,1.039,9.039,1.054,13.818c0.014,4.551-1.466,6.353-0.655,8.552
	c0.618,1.676,0.74,5.28,3.184,6.909c3.979,2.652,10.602,1.481,9.92-1.24c-0.93-3.72-3.904-3.061-7.467-10.969
	c-0.703-1.564,0.025-3.665,2.674-17.07H59.321z"/>
<path fill="#EBA920" d="M59.388,50.821c-2.143,7.688-8.357,5.665-12.668,10.97c-11.881,14.621-10.48,51.683-10.109,65.948
	c0,10.793,7.66,11.589,7.66,11.589c0.398-0.697-0.297-1.398-0.297-1.398s-1.296-0.648-2.13-1.39
	c-0.536-0.477-1.453-2.368-1.668-3.983c0.834-1.158,1.723-3.486,2.004-3.486c0.498,0,1.371,1.538,1.808,3.069
	c0.82,2.872,1.793,1.992,1.793,1.992c0.256-0.919-0.713-5.56-1.211-7.252c-0.453-1.538-2.537-3.729-3.514-5.388
	c-0.02-0.299-0.035-0.6-0.062-0.895c-0.752-7.959,8.709-43.886,8.709-43.886s4.25,1.839-0.193,23.61
	c-3.153,15.452,0.23,42.345,6.094,68.57c0.831,3.714,2.266,16.201,3.73,23.695c2.916,14.9,3.732,17.101,3,18.728
	c-3.562,7.909-6.537,7.249-7.467,10.969c-0.682,2.722,5.941,3.892,9.92,1.24c2.444-1.629,1.9-4.163,2.519-5.839
	c0.812-2.199-0.003-5.071,0.01-9.622c0.019-5.746-1.335-13.349-1.335-24.6c0-3.583-0.781-13.772-0.662-15.454
	c1.629-22.806-3.326-39.784-1.172-39.784c5.137,0,12.073-61.496,12.073-61.129C76.219,67.463,59.388,50.821,59.388,50.821"/>
<path fill="#EBA920" d="M40.917,131.955c0,0,1.066,3.104,1.111,3.335c0.047,0.231,1.111,1.204,1.807,1.528s0.973,0.834,0.973,1.158
	s-1.807-0.186-1.807-0.186s-4.029-1.715-3.751-4.91C39.526,129.686,40.917,131.955,40.917,131.955"/>
<path fill="#EBA920" d="M41.624,130.148c0,0,0.57,3.231,0.58,3.468c0.008,0.235,0.91,1.362,1.545,1.791
	c0.637,0.429,0.832,0.975,0.781,1.295s-1.755-0.464-1.755-0.464s-3.714-2.32-2.942-5.435
	C40.604,127.69,41.624,130.148,41.624,130.148"/>
<path fill="#EBA920" d="M41.595,128.712c0,0,0.491,2.792,0.5,2.997c0.008,0.203,0.787,1.177,1.336,1.547s0.719,0.843,0.674,1.119
	c-0.043,0.277-1.517-0.4-1.517-0.4s-3.209-2.006-2.542-4.696S41.595,128.712,41.595,128.712"/>
<path fill="#EBA920" d="M39.852,133.622c0,0,1.853-1.76,1.899-2.177c0.045-0.417,0.045-3.427,0.045-3.427l-2.361,1.574l0.23,4.076"
	/>
<path fill="#EBA920" d="M53.3,32.683c0,8.168,4.842,17.527,10.813,17.527s10.812-9.359,10.812-17.527
	c0-8.17-4.84-12.053-10.812-12.053S53.3,24.513,53.3,32.683"/>
<path fill="#EBA920" d="M70.339,46.344c-1.008,1.009-1.285,9.29,3.504,10.804c2.969,0.938-10.713,4.789-10.713,4.789l0.631-16.889
	L70.339,46.344z"/>
<path fill="#EBA920" d="M58.217,46.344c1.008,1.009,1.286,9.29-3.504,10.804c-2.968,0.938,10.713,4.789,10.713,4.789l-0.63-16.889
	L58.217,46.344z"/>
<path fill="#EBA920" d="M56.208,37.941c0.16,0.975-0.442,1.904-1.346,2.078c-0.904,0.174-1.768-0.474-1.929-1.449l-0.456-2.762
	c-0.162-0.975,0.441-1.903,1.345-2.078c0.903-0.174,1.767,0.476,1.929,1.449L56.208,37.941z"/>
<path fill="#EBA920" d="M88.031,131.955c0,0-1.065,3.104-1.112,3.335c-0.046,0.231-1.111,1.204-1.806,1.528
	s-0.974,0.834-0.974,1.158s1.808-0.186,1.808-0.186s4.028-1.715,3.751-4.91S88.031,131.955,88.031,131.955"/>
<path fill="#EBA920" d="M87.323,130.148c0,0-0.569,3.231-0.578,3.468c-0.01,0.235-0.912,1.362-1.547,1.791
	c-0.636,0.429-0.832,0.975-0.781,1.295c0.052,0.32,1.756-0.464,1.756-0.464s3.714-2.32,2.943-5.435
	C88.344,127.69,87.323,130.148,87.323,130.148"/>
<path fill="#EBA920" d="M87.354,128.712c0,0-0.492,2.792-0.5,2.997c-0.009,0.203-0.787,1.177-1.336,1.547
	c-0.551,0.37-0.72,0.843-0.676,1.119c0.044,0.277,1.518-0.4,1.518-0.4s3.209-2.006,2.541-4.696
	C88.235,126.588,87.354,128.712,87.354,128.712"/>
<path fill="#EBA920" d="M69.561,50.821c2.142,7.688,8.358,5.665,12.668,10.97c11.881,14.621,10.481,51.683,10.11,65.948
	c0,10.793-7.661,11.589-7.661,11.589c-0.397-0.697,0.297-1.398,0.297-1.398s1.296-0.648,2.13-1.39
	c0.536-0.477,1.453-2.368,1.668-3.983c-0.834-1.158-1.723-3.486-2.004-3.486c-0.498,0-1.371,1.538-1.809,3.069
	c-0.819,2.872-1.793,1.992-1.793,1.992c-0.256-0.919,0.713-5.56,1.211-7.252c0.453-1.538,2.537-3.729,3.515-5.388
	c0.019-0.299,0.035-0.6,0.063-0.895c0.75-7.959-8.711-43.886-8.711-43.886s-4.248,1.839,0.194,23.61
	c3.153,15.452-3.427,32.657-9.291,58.883c-0.831,3.714-0.325,10.914-1.792,18.407c-2.915,14.9-9.122,7.993-9.122-3.258
	c0-3.583,0.772-13.956,0.652-15.638c-1.629-22.806,7.069-30.491,4.916-30.491c-5.138,0-12.073-61.496-12.073-61.129
	C52.729,67.463,69.561,50.821,69.561,50.821"/>
<path fill="#EBA920" d="M89.097,133.622c0,0-1.854-1.76-1.898-2.177c-0.047-0.417-0.047-3.427-0.047-3.427l2.362,1.574l-0.231,4.076
	"/>
<path fill="#26A3DD" d="M45.423,61.236c1.897-1.896,10.674-5.931,10.674-5.931c2.865,2.69,5.664,3.472,8.064,3.386v56.39H46.134
	l3.084-33.445c-5.219,11.623-7.116,36.055-7.116,36.055l-7.353-1.423C33.089,85.194,43.524,63.134,45.423,61.236"/>
<path fill="#26A3DD" d="M82.808,61.236c-1.897-1.896-10.674-5.931-10.674-5.931c-2.865,2.69-5.664,3.472-8.064,3.386v56.39h18.027
	l-3.084-33.445c5.219,11.623,7.116,36.055,7.116,36.055l7.353-1.423C95.142,85.194,84.706,63.134,82.808,61.236"/>
<g>
	<defs>
		<path id="SVGID_1_" d="M64.069,130.263h0.713l-5.932,57.336h9.116c11.86-56.929,12.944-74.415,12.944-74.415l-16.842-0.238
			V130.263z"/>
	</defs>
	<clipPath id="SVGID_2_">
		<use xlink:href="#SVGID_1_"  overflow="visible"/>
	</clipPath>
	
		<linearGradient id="SVGID_3_" gradientUnits="userSpaceOnUse" x1="-1265.5527" y1="846.3105" x2="-1264.5527" y2="846.3105" gradientTransform="matrix(-3.300000e-06 -74.6533 -74.6533 3.300000e-06 63249.7578 -94290.1641)">
		<stop  offset="0" style="stop-color:#0083B9"/>
		<stop  offset="0.1603" style="stop-color:#0083B9"/>
		<stop  offset="0.3473" style="stop-color:#0486BD"/>
		<stop  offset="0.5346" style="stop-color:#1090C7"/>
		<stop  offset="0.7215" style="stop-color:#24A0D9"/>
		<stop  offset="0.7591" style="stop-color:#29A4DD"/>
		<stop  offset="1" style="stop-color:#29A4DD"/>
	</linearGradient>
	<rect x="58.851" y="112.945" clip-path="url(#SVGID_2_)" fill="url(#SVGID_3_)" width="22.061" height="74.653"/>
</g>
<path fill="#26A3DD" d="M47.319,113.184c0,0,1.114,32.463,12.975,89.391h7.828l-3.467-72.312h-0.494v-17.316L47.319,113.184z"/>
<path fill="#FFFFFF" d="M75.034,33.31c0,7.79-4.617,16.718-10.313,16.718c-5.695,0-10.313-8.928-10.313-16.718
	c0-7.792,4.618-11.496,10.313-11.496C70.417,21.814,75.034,25.518,75.034,33.31"/>
<path fill="#EBA920" d="M56.056,37.893c0.154,0.93-0.42,1.816-1.283,1.981c-0.861,0.166-1.686-0.452-1.84-1.381l-0.435-2.635
	c-0.153-0.929,0.422-1.815,1.283-1.982c0.862-0.166,1.687,0.454,1.839,1.382L56.056,37.893z"/>
<path fill="#EBA920" d="M71.351,37.893c-0.153,0.93,0.42,1.816,1.282,1.981c0.862,0.166,1.687-0.452,1.841-1.381l0.435-2.635
	c0.153-0.929-0.421-1.815-1.283-1.982c-0.86-0.166-1.685,0.454-1.839,1.382L71.351,37.893z"/>
<path fill="#EBA920" d="M74.124,32.877c0,7.79-4.618,16.717-10.314,16.717c-5.695,0-10.312-8.927-10.312-16.717
	c0-7.793,4.617-11.496,10.312-11.496C69.506,21.381,74.124,25.084,74.124,32.877"/>
<path fill="#AE5A18" d="M63.718,42.184c0.608,0,1.16-0.136,1.561-0.355c-0.08-0.619-0.744-0.802-1.561-0.802
	c-0.815,0-1.479,0.183-1.559,0.802C62.56,42.048,63.11,42.184,63.718,42.184"/>
<path fill="#AE5A18" d="M60.894,36.057c0,0.676-0.442,1.226-1.668,1.226c-1.225,0-1.75-0.55-1.75-1.226
	c0-0.678,0.525-1.456,1.75-1.456C60.451,34.601,60.894,35.379,60.894,36.057"/>
<path fill="#EBA920" d="M61.442,36.524c0,0.677-0.992,1.227-2.217,1.227c-1.224,0-2.217-0.55-2.217-1.227
	c0-0.677,0.993-1.226,2.217-1.226C60.45,35.298,61.442,35.847,61.442,36.524"/>
<path fill="#AE5A18" d="M59.985,35.591c0,0.386-0.34,0.7-0.76,0.7c-0.419,0-0.759-0.314-0.759-0.7c0-0.387,0.34-0.701,0.759-0.701
	C59.646,34.89,59.985,35.205,59.985,35.591"/>
<path fill="#AE5A18" d="M69.716,36.057c0,0.676-0.441,1.226-1.666,1.226c-1.226,0-1.75-0.55-1.75-1.226
	c0-0.678,0.524-1.456,1.75-1.456C69.274,34.601,69.716,35.379,69.716,36.057"/>
<path fill="#EBA920" d="M70.267,36.524c0,0.677-0.993,1.227-2.217,1.227c-1.225,0-2.217-0.55-2.217-1.227
	c0-0.677,0.992-1.226,2.217-1.226C69.273,35.298,70.267,35.847,70.267,36.524"/>
<path fill="#AE5A18" d="M68.808,35.591c0,0.386-0.34,0.7-0.758,0.7c-0.42,0-0.76-0.314-0.76-0.7c0-0.387,0.34-0.701,0.76-0.701
	C68.468,34.89,68.808,35.205,68.808,35.591"/>
<path fill="#AE5A18" d="M64.871,38.834c0,0-0.356-3.672,0.51-4.947c0.867-1.275,5.457-0.307,5.457-0.307s-1.274-0.867-1.683-1.019
	c-0.408-0.153-4.029-0.612-4.488,0.867S64.871,38.834,64.871,38.834"/>
<path fill="#AE5A18" d="M61.548,33.887c-0.768-1.337-5.458-0.307-5.458-0.307s1.26-0.918,1.685-1.02
	C62.474,31.439,61.812,34.346,61.548,33.887"/>
<path fill="#AE5A18" d="M59.212,25.279c0,0,4.898,3.095,9.799,4.126l-2.838-2.837c0,0,2.138,0.18,3.363,1.05
	c2.575,1.828,3.592,9.258,3.592,9.258s2.543-6.262,0.996-10.388s-6.404-6.749-10.787-6.624c-7.072,0.201-13.074,5.468-10.057,15.73
	c1.079,3.671,0.867-1.2,0.867-1.2S55.343,26.052,59.212,25.279"/>
<path fill="#AE5A18" d="M66.462,43.859c-0.963-0.912-1.644-0.51-2.763-0.486c-1.118-0.024-1.799-0.426-2.762,0.486
	c-0.175,0.21,1.325,0.368,2.756,0.376h0.006h0.007C65.138,44.227,66.636,44.069,66.462,43.859"/>
</svg>
