<?xml version="1.0" encoding="utf-8"?>
<!-- Generator: Adobe Illustrator 15.1.0, SVG Export Plug-In . SVG Version: 6.00 Build 0)  -->
<!DOCTYPE svg PUBLIC "-//W3C//DTD SVG 1.1//EN" "http://www.w3.org/Graphics/SVG/1.1/DTD/svg11.dtd">
<svg version="1.1" id="Layer_1" xmlns="http://www.w3.org/2000/svg" xmlns:xlink="http://www.w3.org/1999/xlink" x="0px" y="0px"
	 width="197px" height="197px" viewBox="0 0 197 197" enable-background="new 0 0 197 197" xml:space="preserve">
<g>
	<defs>
		<path id="SVGID_1_" d="M194,183c0,6.627-5.373,12-12,12H14c-6.627,0-12-5.373-12-12V15C2,8.373,7.373,3,14,3h168
			c6.627,0,12,5.373,12,12V183z"/>
	</defs>
	<clipPath id="SVGID_2_">
		<use xlink:href="#SVGID_1_"  overflow="visible"/>
	</clipPath>
	<rect x="-88.925" y="-500.867" clip-path="url(#SVGID_2_)" fill="#FFFFFF" width="384.676" height="709.93"/>
	<path clip-path="url(#SVGID_2_)" fill="#EBA920" d="M175.169-105.002c0,0-3.195,9.311-3.334,10.006
		c-0.141,0.693-3.334,3.611-5.42,4.584c-2.082,0.973-2.918,2.502-2.918,3.475s5.42-0.557,5.42-0.557s12.088-5.145,11.256-14.73
		S175.169-105.002,175.169-105.002"/>
	<path clip-path="url(#SVGID_2_)" fill="#EBA920" d="M173.048-110.422c0,0-1.711,9.695-1.736,10.402
		c-0.027,0.707-2.734,4.088-4.639,5.375c-1.91,1.285-2.496,2.922-2.344,3.883s5.268-1.391,5.268-1.391s11.139-6.961,8.828-16.305
		C176.106-117.797,173.048-110.422,173.048-110.422"/>
	<path clip-path="url(#SVGID_2_)" fill="#EBA920" d="M173.14-114.73c0,0-1.477,8.375-1.5,8.99c-0.023,0.609-2.361,3.529-4.008,4.641
		c-1.65,1.111-2.16,2.529-2.025,3.357c0.133,0.832,4.551-1.201,4.551-1.201s9.627-6.018,7.625-14.088
		C175.782-121.104,173.14-114.73,173.14-114.73"/>
	<path clip-path="url(#SVGID_2_)" fill="#EBA920" d="M119.757-348.402c6.428,23.064,25.076,16.994,38.004,32.908
		c35.643,43.863,31.445,155.049,30.332,197.846c0,32.379-22.984,34.766-22.984,34.766c-1.195-2.092,0.891-4.195,0.891-4.195
		s3.891-1.945,6.393-4.168c1.605-1.43,4.359-7.105,5.004-11.951c-2.502-3.475-5.17-10.459-6.012-10.459
		c-1.494,0-4.113,4.613-5.426,9.207c-2.461,8.617-5.379,5.977-5.379,5.977c-0.768-2.756,2.139-16.678,3.633-21.754
		c1.359-4.615,7.611-11.189,10.541-16.164c0.059-0.896,0.105-1.799,0.191-2.684c2.252-23.877-26.131-131.656-26.131-131.656
		s-12.746,5.516,0.58,70.83c9.461,46.357,7.512,118.1-10.078,196.775c-2.492,11.141-0.98,32.742-5.375,55.223
		c-8.746,44.699-11.195,51.301-9,56.182c10.684,23.729,19.611,21.748,22.4,32.906c2.041,8.166-17.828,11.678-29.764,3.721
		c-7.33-4.887-7.693-15.699-9.551-20.727c-2.432-6.598,2.01-12.004,1.969-25.656c-0.053-17.242-3.424-22.447-3.424-56.199
		c0-10.75,2.316-41.869,1.953-46.918c-4.887-68.414,3.422-111.598-3.041-111.598c-15.41,0-36.217-184.488-36.217-183.387
		C69.267-298.479,119.757-348.402,119.757-348.402"/>
	<path clip-path="url(#SVGID_2_)" fill="#EBA920" d="M33.829-105.002c0,0,3.197,9.311,3.334,10.006
		c0.141,0.693,3.334,3.611,5.42,4.584c2.084,0.973,2.918,2.502,2.918,3.475s-5.42-0.557-5.42-0.557s-12.088-5.145-11.256-14.73
		S33.829-105.002,33.829-105.002"/>
	<path clip-path="url(#SVGID_2_)" fill="#EBA920" d="M35.95-110.422c0,0,1.711,9.695,1.738,10.402
		c0.025,0.707,2.732,4.088,4.637,5.375c1.908,1.285,2.496,2.922,2.344,3.883s-5.268-1.391-5.268-1.391s-11.139-6.961-8.826-16.305
		C32.892-117.797,35.95-110.422,35.95-110.422"/>
	<path clip-path="url(#SVGID_2_)" fill="#EBA920" d="M35.86-114.73c0,0,1.477,8.375,1.5,8.99c0.023,0.609,2.361,3.529,4.008,4.641
		c1.648,1.111,2.158,2.529,2.023,3.357c-0.131,0.832-4.549-1.201-4.549-1.201s-9.627-6.018-7.627-14.088
		C33.218-121.104,35.86-114.73,35.86-114.73"/>
	<path clip-path="url(#SVGID_2_)" fill="#EBA920" d="M89.241-348.402c-6.428,23.064-25.074,16.994-38.004,32.908
		c-35.643,43.863-31.443,155.049-30.33,197.846c0,32.379,22.982,34.766,22.982,34.766c1.193-2.092-0.891-4.195-0.891-4.195
		s-3.891-1.945-6.393-4.168c-1.605-1.43-4.359-7.105-5.004-11.951c2.502-3.475,5.172-10.459,6.012-10.459
		c1.494,0,4.113,4.613,5.426,9.207c2.461,8.617,5.379,5.977,5.379,5.977c0.768-2.756-2.139-16.678-3.633-21.754
		c-1.359-4.615-7.611-11.189-10.541-16.164c-0.059-0.896-0.105-1.799-0.189-2.684C31.802-162.951,60.185-270.73,60.185-270.73
		s12.748,5.516-0.58,70.83c-9.459,46.357-7.512,118.1,10.078,196.775c2.494,11.141,0.982,32.742,5.377,55.223
		c8.744,44.699,11.193,51.301,9,56.182c-10.686,23.729-19.611,21.748-22.4,32.906c-2.043,8.166,17.826,11.678,29.762,3.721
		c7.33-4.887,7.693-15.699,9.551-20.727c2.432-6.598-2.01-12.004-1.969-25.656c0.053-17.242,3.426-22.447,3.426-56.199
		c0-10.75-2.318-41.869-1.955-46.918c4.887-68.414-3.422-111.598,3.041-111.598c15.41,0,36.217-184.488,36.217-183.387
		C139.731-298.479,89.241-348.402,89.241-348.402"/>
	<path clip-path="url(#SVGID_2_)" fill="#26A3DD" d="M153.81-161.316c0,0,10.678,72.59-24.906,243.371h-23.48v-192.137h-2.137
		v-51.949L153.81-161.316z"/>
	<path clip-path="url(#SVGID_2_)" fill="#26A3DD" d="M53.036-161.316c0,0-10.676,72.59,24.906,243.371h23.48v-192.137h2.137v-51.949
		L53.036-161.316z"/>
	<rect x="-88.925" y="-500.867" clip-path="url(#SVGID_2_)" fill="#FFFFFF" width="384.676" height="709.93"/>
	<path clip-path="url(#SVGID_2_)" fill="#EBA920" d="M175.169-105.002c0,0-3.195,9.311-3.334,10.006
		c-0.141,0.693-3.334,3.611-5.42,4.584c-2.082,0.973-2.918,2.502-2.918,3.475s5.42-0.557,5.42-0.557s12.088-5.145,11.256-14.73
		S175.169-105.002,175.169-105.002"/>
	<path clip-path="url(#SVGID_2_)" fill="#EBA920" d="M173.048-110.422c0,0-1.711,9.695-1.736,10.402
		c-0.027,0.707-2.734,4.088-4.639,5.375c-1.91,1.285-2.496,2.922-2.344,3.883s5.268-1.391,5.268-1.391s11.139-6.961,8.828-16.305
		C176.106-117.797,173.048-110.422,173.048-110.422"/>
	<path clip-path="url(#SVGID_2_)" fill="#EBA920" d="M173.14-114.73c0,0-1.477,8.375-1.5,8.99c-0.023,0.609-2.361,3.529-4.008,4.641
		c-1.65,1.111-2.16,2.529-2.025,3.357c0.133,0.832,4.551-1.201,4.551-1.201s9.627-6.018,7.625-14.088
		C175.782-121.104,173.14-114.73,173.14-114.73"/>
	<path clip-path="url(#SVGID_2_)" fill="#EBA920" d="M119.757-348.402c6.428,23.064,25.076,16.994,38.004,32.908
		c35.643,43.863,31.445,155.049,30.332,197.846c0,32.379-22.984,34.766-22.984,34.766c-1.195-2.092,0.891-4.195,0.891-4.195
		s3.891-1.945,6.393-4.168c1.605-1.43,4.359-7.105,5.004-11.951c-2.502-3.475-5.17-10.459-6.012-10.459
		c-1.494,0-4.113,4.613-5.426,9.207c-2.461,8.617-5.379,5.977-5.379,5.977c-0.768-2.756,2.139-16.678,3.633-21.754
		c1.359-4.615,7.611-11.189,10.541-16.164c0.059-0.896,0.105-1.799,0.191-2.684c2.252-23.877-26.131-131.656-26.131-131.656
		s-12.746,5.516,0.58,70.83c9.461,46.357,6.338,109.676-11.256,188.354c-2.49,11.141-0.979,32.742-5.373,55.221
		c-8.748,44.701-11.197,51.303-9,56.182c10.686,23.729,19.611,21.748,22.4,32.906c2.043,8.166-17.826,11.68-29.76,3.723
		c-7.332-4.887-7.699-15.701-9.553-20.729c-2.432-6.598,2.006-12.002,1.969-25.654c-0.057-17.238-3.426-22.449-3.426-56.201
		c0-10.748,2.318-41.869,1.957-46.912c-4.887-68.418,4.594-103.18-1.869-103.18c-15.41,0-36.217-184.488-36.217-183.387
		C69.267-298.479,119.757-348.402,119.757-348.402"/>
	<path clip-path="url(#SVGID_2_)" fill="#EBA920" d="M33.829-105.002c0,0,3.197,9.311,3.334,10.006
		c0.141,0.693,3.334,3.611,5.42,4.584c2.084,0.973,2.918,2.502,2.918,3.475s-5.42-0.557-5.42-0.557s-12.088-5.145-11.256-14.73
		S33.829-105.002,33.829-105.002"/>
	<path clip-path="url(#SVGID_2_)" fill="#EBA920" d="M35.95-110.422c0,0,1.711,9.695,1.738,10.402
		c0.025,0.707,2.732,4.088,4.637,5.375c1.908,1.285,2.496,2.922,2.344,3.883s-5.268-1.391-5.268-1.391s-11.139-6.961-8.826-16.305
		C32.892-117.797,35.95-110.422,35.95-110.422"/>
	<path clip-path="url(#SVGID_2_)" fill="#EBA920" d="M35.86-114.73c0,0,1.477,8.375,1.5,8.99c0.023,0.609,2.361,3.529,4.008,4.641
		c1.648,1.111,2.158,2.529,2.023,3.357c-0.131,0.832-4.549-1.201-4.549-1.201s-9.627-6.018-7.627-14.088
		C33.218-121.104,35.86-114.73,35.86-114.73"/>
	<path clip-path="url(#SVGID_2_)" fill="#EBA920" d="M89.241-348.402c-6.428,23.064-25.074,16.994-38.004,32.908
		c-35.643,43.863-31.443,155.049-30.33,197.846c0,32.379,22.982,34.766,22.982,34.766c1.193-2.092-0.891-4.195-0.891-4.195
		s-3.891-1.945-6.393-4.168c-1.605-1.43-4.359-7.105-5.004-11.951c2.502-3.475,5.172-10.459,6.012-10.459
		c1.494,0,4.113,4.613,5.426,9.207c2.461,8.617,5.379,5.977,5.379,5.977c0.768-2.756-2.139-16.678-3.633-21.754
		c-1.359-4.615-7.611-11.189-10.541-16.164c-0.059-0.896-0.105-1.799-0.189-2.684C31.802-162.951,60.185-270.73,60.185-270.73
		s12.748,5.516-0.58,70.83c-9.459,46.357-7.512,118.1,10.078,196.775c2.494,11.141,0.982,49.211,5.377,71.689
		c8.744,44.701,11.193,51.303,9,56.182c-10.686,23.729-19.611,21.748-22.4,32.906c-2.043,8.166,17.826,11.68,29.762,3.723
		c7.33-4.887,5.695-12.49,7.553-17.518c2.436-6.598-0.012-15.213,0.029-28.865c0.053-17.238,1.311-39.281,1.311-73.035
		c0-10.75-0.203-41.502,0.16-46.551c4.887-68.414-3.422-111.598,3.041-111.598c15.41,0,36.217-184.488,36.217-183.387
		C139.731-298.479,89.241-348.402,89.241-348.402"/>
	<path clip-path="url(#SVGID_2_)" fill="#26A3DD" d="M153.81-161.316c0,0,9.5,64.166-26.078,234.949h-23.484l1.176-183.715h-2.137
		v-51.949L153.81-161.316z"/>
	<path clip-path="url(#SVGID_2_)" fill="#26A3DD" d="M53.036-161.316c0,0-10.676,89.057,24.906,259.84h23.48v-208.605h2.137v-51.949
		L53.036-161.316z"/>
</g>
<path fill="none" stroke="#26A3DD" stroke-width="5" stroke-miterlimit="10" d="M194.5,182.5c0,6.627-5.373,12-12,12h-168
	c-6.627,0-12-5.373-12-12v-168c0-6.627,5.373-12,12-12h168c6.627,0,12,5.373,12,12V182.5z"/>
</svg>
