<?xml version="1.0" encoding="utf-8"?>
<!-- Generator: Adobe Illustrator 15.1.0, SVG Export Plug-In . SVG Version: 6.00 Build 0)  -->
<!DOCTYPE svg PUBLIC "-//W3C//DTD SVG 1.1//EN" "http://www.w3.org/Graphics/SVG/1.1/DTD/svg11.dtd">
<svg version="1.1" id="Layer_1" xmlns="http://www.w3.org/2000/svg" xmlns:xlink="http://www.w3.org/1999/xlink" x="0px" y="0px"
	 width="198px" height="197px" viewBox="0 0 198 197" enable-background="new 0 0 198 197" xml:space="preserve">
<g>
	<defs>
		<path id="SVGID_1_" d="M198,183c0,6.627-5.373,12-12,12H18c-6.627,0-12-5.373-12-12V15C6,8.373,11.373,3,18,3h168
			c6.627,0,12,5.373,12,12V183z"/>
	</defs>
	<clipPath id="SVGID_2_">
		<use xlink:href="#SVGID_1_"  overflow="visible"/>
	</clipPath>
	<rect x="-85.685" y="-502.32" clip-path="url(#SVGID_2_)" fill="#FFFFFF" width="384.676" height="709.93"/>
	<path clip-path="url(#SVGID_2_)" fill="#EBA920" d="M122.999-349.855c6.424,23.064,25.074,16.994,38.004,32.908
		c35.641,43.863,31.443,155.049,30.33,197.846c0,32.379-22.982,34.766-22.982,34.766c-1.193-2.092,0.891-4.195,0.891-4.195
		s3.887-1.945,6.389-4.168c1.607-1.43,4.359-7.105,5.004-11.951c-2.502-3.475-5.168-10.459-6.012-10.459
		c-1.494,0-4.113,4.613-5.426,9.207c-2.459,8.617-5.379,5.977-5.379,5.977c-0.768-2.756,2.139-16.678,3.633-21.754
		c1.359-4.615,7.611-11.189,10.545-16.164c0.055-0.896,0.105-1.799,0.189-2.684c2.25-23.877-26.133-131.656-26.133-131.656
		s-12.744,5.516,0.584,70.83c9.459,46.357,7.512,118.1-10.082,196.775c-2.49,11.141-0.979,32.742-5.373,55.223
		c-8.748,44.699-11.197,51.301-9,56.182c10.686,23.729,19.611,21.748,22.4,32.906c2.043,8.166-17.828,11.678-29.766,3.721
		c-7.328-4.887-7.693-15.699-9.547-20.727c-2.434-6.598,2.006-12.004,1.965-25.656c-0.053-17.242-3.422-22.447-3.422-56.199
		c0-10.75,2.314-41.869,1.953-46.918c-4.887-68.414,3.42-111.598-3.039-111.598c-15.414,0-36.221-184.488-36.221-183.387
		C72.505-299.932,122.999-349.855,122.999-349.855"/>
	<path clip-path="url(#SVGID_2_)" fill="#EBA920" d="M92.479-349.855c-6.428,23.064-25.072,16.994-38.004,32.908
		c-35.643,43.863-31.441,155.049-30.328,197.846c0,32.379,22.98,34.766,22.98,34.766c1.195-2.092-0.891-4.195-0.891-4.195
		s-3.887-1.945-6.391-4.168c-1.607-1.43-4.359-7.105-5.004-11.951c2.504-3.475,5.168-10.459,6.012-10.459
		c1.496,0,4.113,4.613,5.424,9.207c2.461,8.617,5.379,5.977,5.379,5.977c0.768-2.756-2.139-16.678-3.633-21.754
		c-1.359-4.615-7.611-11.189-10.541-16.164c-0.059-0.896-0.105-1.799-0.188-2.684c-2.256-23.877,26.127-131.656,26.127-131.656
		s12.75,5.516-0.58,70.83c-9.461,46.357-7.512,118.1,10.078,196.775c2.496,11.141,0.984,32.742,5.379,55.223
		c8.742,44.699,11.195,51.301,9,56.182c-10.688,23.729-19.611,21.748-22.4,32.906c-2.045,8.166,17.824,11.678,29.76,3.721
		c7.33-4.887,7.695-15.699,9.551-20.727c2.432-6.598-2.008-12.004-1.965-25.656c0.049-17.242,3.424-22.447,3.424-56.199
		c0-10.75-2.318-41.869-1.957-46.918c4.887-68.414-3.422-111.598,3.041-111.598c15.41,0,36.219-184.488,36.219-183.387
		C142.972-299.932,92.479-349.855,92.479-349.855"/>
	<path clip-path="url(#SVGID_2_)" fill="#26A3DD" d="M157.05-162.77c0,0,10.676,72.59-24.908,243.371h-23.479v-192.137h-2.139
		v-51.949L157.05-162.77z"/>
	<path clip-path="url(#SVGID_2_)" fill="#26A3DD" d="M56.274-162.77c0,0-10.676,72.59,24.908,243.371h23.479v-192.137h2.139v-51.949
		L56.274-162.77z"/>
	<rect x="-85.685" y="-502.32" clip-path="url(#SVGID_2_)" fill="#FFFFFF" width="384.676" height="709.93"/>
	<path clip-path="url(#SVGID_2_)" fill="#D98A20" d="M92.28,35.488c0.785,21.043,3.117,27.117,3.16,41.455
		c0.043,13.652-4.396,19.057-1.965,25.654c1.855,5.027,2.221,15.842,9.551,20.729c11.936,7.957,31.805,4.443,29.76-3.721
		c-2.789-11.16-11.713-9.182-22.4-32.906c-2.109-4.693,0.076-10.996,8.021-51.211H92.28z"/>
	<path clip-path="url(#SVGID_2_)" fill="#EBA920" d="M92.479-349.855c-6.428,23.064-25.072,16.994-38.004,32.908
		c-35.643,43.863-31.441,155.049-30.328,197.846c0,32.379,22.98,34.766,22.98,34.766c1.195-2.092-0.891-4.195-0.891-4.195
		s-3.887-1.945-6.391-4.168c-1.607-1.43-4.359-7.105-5.004-11.951c2.504-3.475,5.168-10.459,6.012-10.459
		c1.496,0,4.113,4.613,5.424,9.207c2.461,8.617,5.379,5.977,5.379,5.977c0.768-2.756-2.139-16.678-3.633-21.754
		c-1.359-4.615-7.611-11.189-10.541-16.164c-0.059-0.896-0.105-1.799-0.188-2.684c-2.256-23.877,26.127-131.656,26.127-131.656
		s12.75,5.516-0.58,70.83C53.382-154.996,63.534-74.32,81.124,4.357c2.492,11.143,6.797,48.604,11.191,71.086
		c8.748,44.701,11.197,51.303,9,56.182c-10.684,23.729-19.611,21.748-22.4,32.906c-2.045,8.166,17.824,11.676,29.76,3.723
		c7.332-4.887,5.701-12.49,7.555-17.518c2.436-6.598-0.008-15.213,0.031-28.865c0.055-17.238-4.006-40.047-4.006-73.801
		c0-10.748-2.344-41.316-1.986-46.361c4.887-68.416-9.979-119.354-3.516-119.354c15.41,0,36.219-184.488,36.219-183.387
		C142.972-299.932,92.479-349.855,92.479-349.855"/>
	<path clip-path="url(#SVGID_2_)" fill="#EBA920" d="M122.999-349.855c6.424,23.064,25.074,16.994,38.004,32.908
		c35.641,43.863,31.443,155.049,30.33,197.846c0,32.379-22.982,34.766-22.982,34.766c-1.193-2.092,0.891-4.195,0.891-4.195
		s3.887-1.945,6.389-4.168c1.607-1.43,4.359-7.105,5.004-11.951c-2.502-3.475-5.168-10.459-6.012-10.459
		c-1.494,0-4.113,4.613-5.426,9.207c-2.459,8.617-5.379,5.977-5.379,5.977c-0.768-2.756,2.139-16.678,3.633-21.754
		c1.359-4.615,7.611-11.189,10.545-16.164c0.055-0.896,0.105-1.799,0.189-2.684c2.25-23.877-26.133-131.656-26.133-131.656
		s-12.744,5.516,0.584,70.83c9.459,46.357-10.281,97.971-27.875,176.648c-2.492,11.143-0.975,32.742-5.375,55.221
		c-8.746,44.703-27.367,23.98-27.367-9.773c0-10.748,2.318-41.867,1.957-46.912c-4.887-68.416,21.209-91.475,14.75-91.475
		c-15.414,0-36.221-184.488-36.221-183.387C72.505-299.932,122.999-349.855,122.999-349.855"/>
	<g clip-path="url(#SVGID_2_)">
		<defs>
			<path id="SVGID_3_" d="M106.524-111.531h2.139L90.868,60.477h27.35c35.58-170.787,38.832-223.246,38.832-223.246l-50.525-0.715
				V-111.531z"/>
		</defs>
		<clipPath id="SVGID_4_">
			<use xlink:href="#SVGID_3_"  overflow="visible"/>
		</clipPath>
		
			<linearGradient id="SVGID_5_" gradientUnits="userSpaceOnUse" x1="-1224.1748" y1="579.8242" x2="-1221.1748" y2="579.8242" gradientTransform="matrix(0 -74.6533 -74.6533 0 43409.7578 -91328.2109)">
			<stop  offset="0" style="stop-color:#0083B9"/>
			<stop  offset="0.1603" style="stop-color:#0083B9"/>
			<stop  offset="0.3473" style="stop-color:#0486BD"/>
			<stop  offset="0.5346" style="stop-color:#1090C7"/>
			<stop  offset="0.7215" style="stop-color:#24A0D9"/>
			<stop  offset="0.7591" style="stop-color:#29A4DD"/>
			<stop  offset="1" style="stop-color:#29A4DD"/>
		</linearGradient>
		<rect x="90.868" y="-163.484" clip-path="url(#SVGID_4_)" fill="url(#SVGID_5_)" width="66.182" height="223.961"/>
	</g>
	<path clip-path="url(#SVGID_2_)" fill="#26A3DD" d="M56.274-162.77c0,0,3.342,97.389,38.924,268.172h23.484l-10.4-216.938H106.8
		v-51.949L56.274-162.77z"/>
</g>
<path fill="none" stroke="#26A3DD" stroke-width="5" stroke-miterlimit="10" d="M194.5,182.5c0,6.627-5.373,12-12,12h-168
	c-6.627,0-12-5.373-12-12v-168c0-6.627,5.373-12,12-12h168c6.627,0,12,5.373,12,12V182.5z"/>
</svg>
