<?xml version="1.0" encoding="utf-8"?>
<!-- Generator: Adobe Illustrator 15.1.0, SVG Export Plug-In . SVG Version: 6.00 Build 0)  -->
<!DOCTYPE svg PUBLIC "-//W3C//DTD SVG 1.1//EN" "http://www.w3.org/Graphics/SVG/1.1/DTD/svg11.dtd">
<svg version="1.1" id="Layer_1" xmlns="http://www.w3.org/2000/svg" xmlns:xlink="http://www.w3.org/1999/xlink" x="0px" y="0px"
	 width="197px" height="197px" viewBox="0 0 197 197" enable-background="new 0 0 197 197" xml:space="preserve">
<g>
	<defs>
		<path id="SVGID_1_" d="M193,182c0,6.627-5.373,12-12,12H13c-6.627,0-12-5.373-12-12V14C1,7.373,6.373,2,13,2h168
			c6.627,0,12,5.373,12,12V182z"/>
	</defs>
	<clipPath id="SVGID_2_">
		<use xlink:href="#SVGID_1_"  overflow="visible"/>
	</clipPath>
	<rect x="-93.618" y="-504.203" clip-path="url(#SVGID_2_)" fill="#FFFFFF" width="384.674" height="709.93"/>
	<path clip-path="url(#SVGID_2_)" fill="#EBA920" d="M115.063-351.742c6.428,23.068,25.076,16.996,38.004,32.912
		c35.643,43.861,31.443,155.045,30.33,197.842c0,32.379-22.982,34.768-22.982,34.768c-1.195-2.09,0.891-4.197,0.891-4.197
		s3.891-1.943,6.393-4.166c1.605-1.432,4.359-7.104,5.004-11.953c-2.502-3.473-5.172-10.457-6.012-10.457
		c-1.494,0-4.113,4.615-5.426,9.207c-2.461,8.615-5.379,5.979-5.379,5.979c-0.768-2.756,2.139-16.68,3.633-21.756
		c1.359-4.613,7.611-11.189,10.541-16.164c0.059-0.896,0.105-1.799,0.189-2.686c2.254-23.877-26.129-131.654-26.129-131.654
		s-12.746,5.518,0.58,70.83c9.459,46.355,7.512,118.098-10.078,196.775c-2.494,11.143-0.982,32.742-5.377,55.221
		c-8.744,44.701-11.193,51.305-9,56.186c10.686,23.727,19.613,21.746,22.402,32.904c2.041,8.164-17.828,11.678-29.764,3.723
		c-7.33-4.887-7.693-15.703-9.551-20.73c-2.432-6.598,2.01-12.004,1.969-25.652c-0.053-17.242-3.424-22.449-3.424-56.203
		c0-10.748,2.316-41.867,1.953-46.914c-4.887-68.414,3.422-111.598-3.041-111.598c-15.41,0-36.217-184.488-36.217-183.389
		C64.573-301.814,115.063-351.742,115.063-351.742"/>
	<path clip-path="url(#SVGID_2_)" fill="#EBA920" d="M84.548-351.742c-6.428,23.068-25.076,16.996-38.004,32.912
		c-35.643,43.861-31.443,155.045-30.33,197.842c0,32.379,22.982,34.768,22.982,34.768c1.193-2.09-0.891-4.197-0.891-4.197
		s-3.891-1.943-6.393-4.166c-1.605-1.432-4.359-7.104-5.004-11.953c2.502-3.473,5.172-10.457,6.012-10.457
		c1.494,0,4.113,4.615,5.426,9.207c2.461,8.615,5.379,5.979,5.379,5.979c0.768-2.756-2.139-16.68-3.633-21.756
		c-1.359-4.613-7.611-11.189-10.541-16.164c-0.059-0.896-0.105-1.799-0.189-2.686c-2.254-23.877,26.129-131.654,26.129-131.654
		s12.746,5.518-0.58,70.83C45.452-156.883,47.399-85.141,64.989-6.463c2.494,11.143,0.982,32.742,5.377,55.221
		c8.744,44.701,11.193,51.305,9,56.186c-10.686,23.727-19.613,21.746-22.402,32.904c-2.041,8.164,17.828,11.678,29.764,3.723
		c7.33-4.887,7.693-15.703,9.551-20.73c2.432-6.598-2.01-12.004-1.969-25.652c0.053-17.242,3.424-22.449,3.424-56.203
		c0-10.748-2.316-41.867-1.953-46.914c4.887-68.414-3.422-111.598,3.041-111.598c15.41,0,36.217-184.488,36.217-183.389
		C135.038-301.814,84.548-351.742,84.548-351.742"/>
	<path clip-path="url(#SVGID_2_)" fill="#26A3DD" d="M149.116-164.654c0,0,10.678,72.588-24.906,243.373h-23.48V-113.42h-2.137
		v-51.947L149.116-164.654z"/>
	<path clip-path="url(#SVGID_2_)" fill="#26A3DD" d="M48.343-164.654c0,0-10.676,72.588,24.906,243.373h23.48V-113.42h2.137v-51.947
		L48.343-164.654z"/>
	<rect x="-95.95" y="-438.103" clip-path="url(#SVGID_2_)" fill="#FFFFFF" width="384.676" height="709.928"/>
	<path clip-path="url(#SVGID_2_)" fill="#EBA920" d="M122.158-328.57c6.426,23.066,25.072,16.994,38.004,32.91
		c35.643,43.861,31.441,155.047,30.328,197.844c0,32.379,6.51,39.428,6.51,39.428c-1.406,1.584-3.873,0.525-3.873,0.525
		s-3.346-4.574-4.752-9.678c-0.568-2.076-5.455-10.213-8.584-15.824c-2.502-3.475-5.168-10.459-6.012-10.459
		c-1.494,0-4.113,4.613-5.422,9.207c-2.459,8.615-5.379,5.979-5.379,5.979c-0.77-2.756,2.137-16.68,3.633-21.756
		c1.359-4.613,7.609-11.189,10.543-16.164c0.055-0.896,0.105-1.799,0.188-2.686c2.254-23.877-26.129-131.654-26.129-131.654
		s-12.748,5.518,0.582,70.83c9.457,46.357,7.512,118.1-10.082,196.777c-2.492,11.141-0.98,32.74-5.375,55.221
		c-8.746,44.699-11.197,51.303-9,56.184c10.688,23.727,19.611,21.746,22.4,32.904c2.045,8.166-17.824,11.678-29.764,3.723
		c-7.326-4.887-7.695-15.701-9.547-20.729c-2.434-6.598,2.004-12.006,1.963-25.654c-0.049-17.242-3.422-22.449-3.422-56.201
		c0-10.75,2.314-41.869,1.957-46.916c-4.887-68.416,3.42-111.6-3.041-111.6c-15.414,0-36.223-184.488-36.223-183.387
		S122.158-328.57,122.158-328.57"/>
	<path clip-path="url(#SVGID_2_)" fill="#D98A20" d="M22.065-99.555l-2.246,9.434c0,0,3.109,11.258-0.117,10.674
		c0,0-3.832-7.635-3.85-8.535c-0.018-0.896,2.139-11.771,2.139-11.771L22.065-99.555z"/>
	<path clip-path="url(#SVGID_2_)" fill="#EBA920" d="M84.202-351.57c-6.428,23.066-25.074,16.994-38.004,32.91
		c-35.643,43.861-31.445,155.047-30.332,197.844c0,32.379-6.512,39.428-6.512,39.428c1.41,1.584,3.873,0.525,3.873,0.525
		s3.346-4.574,4.752-9.678c0.57-2.076,3.984-13.74,7.113-19.354c2.502-3.477,5.293-4.273,6.135-4.273
		c1.494,0,1.385,7.438,2.461,12.092c1.23,5.328,3.328,4.131,3.328,4.131c0.771-2.758,2.062-18.32,0.568-23.398
		c-1.359-4.615-5.449-13.24-8.379-18.215c-0.059-0.896-0.105-1.799-0.191-2.686c-2.252-23.877,26.131-131.654,26.131-131.654
		s12.748,5.518-0.58,70.83c-9.463,46.357-7.516,118.1,10.078,196.777c2.492,11.141,0.98,32.74,5.375,55.221
		c8.746,44.699,11.195,51.303,9,56.184c-10.684,23.727-19.609,21.746-22.398,32.904c-2.043,8.166,17.826,11.678,29.762,3.723
		c7.33-4.887,7.693-15.701,9.551-20.729c2.432-6.598-2.01-12.006-1.969-25.654c0.053-17.242,3.426-22.449,3.426-56.201
		c0-10.75-2.318-41.869-1.955-46.916c4.887-68.416-3.422-111.6,3.041-111.6c15.41,0,36.217-184.488,36.217-183.387
		S84.202-351.57,84.202-351.57"/>
	<path clip-path="url(#SVGID_2_)" fill="#26A3DD" d="M156.207-141.484c0,0,10.676,72.59-24.904,243.371H107.82V-90.25h-2.135
		v-51.947L156.207-141.484z"/>
	<path clip-path="url(#SVGID_2_)" fill="#26A3DD" d="M48.147-164.484c0,0-10.68,72.59,24.904,243.371h23.482V-113.25h2.135v-51.947
		L48.147-164.484z"/>
	<rect x="-6.165" y="-70.318" clip-path="url(#SVGID_2_)" fill="#FFFFFF" width="106.094" height="274.139"/>
	<rect x="61.479" y="-113.043" clip-path="url(#SVGID_2_)" fill="#FFFFFF" width="36.316" height="316.863"/>
	<polygon clip-path="url(#SVGID_2_)" fill="#26A3DD" points="48.663,-155.766 37.983,-63.91 78.569,-60.35 81.171,-68.016 
		96.536,-113.25 	"/>
	<path clip-path="url(#SVGID_2_)" fill="#DC9827" d="M82.297,65.184c0,0,0,12.104,1.424,22.787
		c1.424,10.68,6.043,20.252,1.424,24.209c-4.982,4.271-4.982,12.105-5.697,17.803c-0.713,5.693-5.945,21.682-11.391,23.498
		c-4.273,1.422-21.363-12.107-17.09-22.789c4.855-12.133,16.377-28.479,17.09-37.023c0.711-8.545-4.988-37.031-4.988-37.031
		L82.297,65.184z"/>
	<g clip-path="url(#SVGID_2_)">
		<defs>
			<path id="SVGID_3_" d="M61.646,71.592h24.922L85.857-37.35L45.271-40.91C51.676,18.189,61.646,71.592,61.646,71.592"/>
		</defs>
		<clipPath id="SVGID_4_">
			<use xlink:href="#SVGID_3_"  overflow="visible"/>
		</clipPath>
		
			<linearGradient id="SVGID_5_" gradientUnits="userSpaceOnUse" x1="-1241.0308" y1="645.1729" x2="-1238.0308" y2="645.1729" gradientTransform="matrix(0 -37.501 37.501 0 -24128.6855 -46468.3203)">
			<stop  offset="0" style="stop-color:#0083B9"/>
			<stop  offset="0.1603" style="stop-color:#0083B9"/>
			<stop  offset="0.3473" style="stop-color:#0486BD"/>
			<stop  offset="0.5346" style="stop-color:#1090C7"/>
			<stop  offset="0.7215" style="stop-color:#24A0D9"/>
			<stop  offset="0.7591" style="stop-color:#29A4DD"/>
			<stop  offset="1" style="stop-color:#29A4DD"/>
		</linearGradient>
		<rect x="45.271" y="-40.91" clip-path="url(#SVGID_4_)" fill="url(#SVGID_5_)" width="41.297" height="112.502"/>
	</g>
	<path clip-path="url(#SVGID_2_)" fill="#26A3DD" d="M60.05-39.756c-10.682,0-24.918-3.504-21.357-29.139
		c2.904-20.887,38.455-15.666,38.455-15.666s4.271,16.379,0,27.061C72.87-46.82,65.646-39.756,60.05-39.756"/>
</g>
<path fill="none" stroke="#26A3DD" stroke-width="5" stroke-miterlimit="10" d="M194.5,182.5c0,6.627-5.373,12-12,12h-168
	c-6.627,0-12-5.373-12-12v-168c0-6.627,5.373-12,12-12h168c6.627,0,12,5.373,12,12V182.5z"/>
<ellipse fill="#CCCCCC" cx="62" cy="165.667" rx="21.667" ry="5.333"/>
</svg>
